G04 PROTEUS GERBER X2 FILE*
%TF.GenerationSoftware,Labcenter,Proteus,8.12-SP2-Build31155*%
%TF.CreationDate,2024-12-01T22:34:02+00:00*%
%TF.FileFunction,Copper,L2,Bot*%
%TF.FilePolarity,Positive*%
%TF.Part,Single*%
%TF.SameCoordinates,{8af06a29-b4e8-4d9f-b474-ceea615e185d}*%
%FSLAX45Y45*%
%MOMM*%
G01*
%TA.AperFunction,Conductor*%
%ADD10C,0.381000*%
%ADD11C,0.203200*%
%TA.AperFunction,ViaPad*%
%ADD12C,1.016000*%
%ADD13C,0.762000*%
%ADD14C,0.508000*%
%TA.AperFunction,ComponentPad*%
%ADD16C,1.524000*%
%TA.AperFunction,SMDPad,CuDef*%
%ADD20R,1.447800X1.143000*%
%TA.AperFunction,ComponentPad*%
%ADD18R,2.032000X2.032000*%
%TA.AperFunction,ComponentPad*%
%ADD19C,2.032000*%
%TA.AperFunction,SMDPad,CuDef*%
%ADD21R,1.143000X1.447800*%
%ADD22R,0.609600X0.558800*%
%TA.AperFunction,Profile*%
%ADD71C,0.203200*%
%TD.AperFunction*%
D10*
X+5218000Y+3470000D02*
X+5024000Y+3470000D01*
X+4935000Y+3381000D01*
X+2039500Y+3381000D01*
X+1925560Y+3494940D01*
X+1925560Y+4714500D01*
X+1862060Y+4778000D01*
X+1358000Y+4778000D01*
X+1200000Y+4620000D01*
X+5530000Y+3730000D02*
X+5530000Y+3889000D01*
X+5468500Y+3950500D01*
X+5468500Y+4520000D01*
X+5630000Y+4520000D01*
X+1200000Y+4620000D02*
X+1220000Y+4620000D01*
X+1370000Y+4470000D01*
X+5218000Y+3470000D02*
X+5218000Y+3474234D01*
X+5473766Y+3730000D01*
X+5530000Y+3730000D01*
X+470000Y+3250000D02*
X+513229Y+3293229D01*
X+641000Y+3098000D02*
X+489000Y+3250000D01*
X+470000Y+3250000D01*
X+470000Y+3571500D01*
X+5630000Y+4520000D02*
X+5630000Y+4670000D01*
X+5600000Y+4700000D01*
X+470000Y+3571500D02*
X+470000Y+3606344D01*
X+531244Y+3810000D02*
X+641000Y+3700244D01*
X+641000Y+3606000D01*
X+531244Y+3810000D02*
X+528333Y+3810000D01*
X+470000Y+3810000D02*
X+455500Y+3810000D01*
X+528333Y+3810000D02*
X+470000Y+3810000D01*
X+641000Y+2844000D02*
X+833000Y+2844000D01*
X+949000Y+2960000D01*
X+1360000Y+2960000D01*
X+5191419Y+808581D02*
X+5214500Y+785500D01*
X+5214500Y+460000D01*
X+2960000Y+2980000D02*
X+2960000Y+2746000D01*
X+2928500Y+2714500D01*
X+2928500Y+333000D01*
X+2960000Y+2980000D02*
X+2440500Y+2980000D01*
X+2420500Y+3000000D01*
X+5191419Y+808581D02*
X+5211419Y+828581D01*
X+5391419Y+828581D01*
X+2960000Y+2980000D02*
X+2960000Y+2981569D01*
X+3208431Y+3230000D01*
X+3240000Y+3230000D01*
X+641000Y+2844000D02*
X+617000Y+2820000D01*
X+460000Y+2820000D01*
X+1360000Y+2960000D02*
X+1360000Y+3120000D01*
X+4550000Y+2922000D02*
X+4008000Y+2922000D01*
X+3940000Y+2854000D01*
X+3940000Y+1984000D01*
X+5858000Y+2580000D02*
X+5643000Y+2365000D01*
X+5151000Y+2365000D01*
X+5087500Y+2428500D01*
X+5087500Y+2873000D01*
X+5010500Y+2950000D01*
X+4790000Y+2950000D01*
X+3940000Y+1984000D02*
X+3916000Y+1960000D01*
X+3690000Y+1960000D01*
X+3180000Y+1960000D01*
X+5858000Y+2580000D02*
X+5858000Y+2652000D01*
X+5700000Y+2810000D01*
X+4550000Y+2922000D02*
X+4762000Y+2922000D01*
X+4790000Y+2950000D01*
X+1900000Y+1770000D02*
X+1722000Y+1770000D01*
X+1900000Y+1770000D02*
X+1900000Y+1539500D01*
X+1830500Y+1470000D01*
X+1570000Y+1470000D01*
X+1500000Y+1770000D02*
X+1476000Y+1746000D01*
X+1200000Y+1746000D01*
X+1500000Y+1770000D02*
X+1658500Y+1770000D01*
X+1570000Y+1470000D02*
X+1400000Y+1470000D01*
X+1658500Y+1770000D02*
X+1722000Y+1770000D01*
D11*
X+1670000Y+5480000D02*
X+1419500Y+5730500D01*
X+134500Y+5730500D01*
X+71000Y+5667000D01*
X+71000Y+747000D01*
X+260000Y+558000D01*
X+1640000Y+3220000D02*
X+1530000Y+3330000D01*
X+1530000Y+3640000D01*
X+769500Y+3381000D02*
X+769500Y+4495000D01*
X+387000Y+4495000D01*
X+260000Y+4622000D01*
X+1526000Y+3950000D02*
X+1530000Y+3946000D01*
X+1530000Y+3740000D01*
X+1214000Y+1031500D02*
X+925500Y+1320000D01*
X+641000Y+1320000D01*
X+6103500Y+3698500D02*
X+6167000Y+3635000D01*
X+6167000Y+1767000D01*
X+6356000Y+1578000D01*
X+5087500Y+3317500D02*
X+3944500Y+3317500D01*
X+3881000Y+3254000D01*
X+3881000Y+2873000D01*
X+3817500Y+2809500D01*
X+3638500Y+2809500D01*
X+3468000Y+2980000D01*
X+6737000Y+816000D02*
X+6610000Y+943000D01*
X+6230500Y+943000D01*
X+6015000Y+1158500D01*
X+4960500Y+1158500D01*
X+4897000Y+1095000D01*
X+4897000Y+396500D01*
X+4833500Y+333000D01*
X+3119000Y+333000D01*
X+3055500Y+396500D01*
X+3055500Y+2555500D01*
X+3214000Y+2714000D01*
X+3214000Y+2980000D01*
D10*
X+6356000Y+3864000D02*
X+6548000Y+3672000D01*
X+6548000Y+2718460D01*
X+6611500Y+2654960D02*
X+6611500Y+2718460D01*
X+6548000Y+2718460D02*
X+6611500Y+2718460D01*
X+6660800Y+2718460D01*
X+6737000Y+2642260D01*
X+6737000Y+2594000D01*
X+1360000Y+2780000D02*
X+1785500Y+2780000D01*
X+1849000Y+2843500D01*
X+1849000Y+3254000D01*
X+1550000Y+4470000D02*
X+1658500Y+4470000D01*
X+1780000Y+4348500D01*
X+1780000Y+3950000D01*
X+1200000Y+2000000D02*
X+1023500Y+1823500D01*
X+1023500Y+1666500D01*
X+1087000Y+1603000D01*
X+1220000Y+1603000D01*
X+1220000Y+1470000D01*
X+1780000Y+3950000D02*
X+1780000Y+3323000D01*
X+1849000Y+3254000D01*
X+1200000Y+2000000D02*
X+1200000Y+2450000D01*
X+5391419Y+1008581D02*
X+5595500Y+1008581D01*
X+5659000Y+945081D01*
X+5659000Y+841000D01*
X+6611500Y+2654960D02*
X+6611500Y+1195500D01*
X+6737000Y+1070000D01*
X+6548000Y+2718460D02*
X+6548000Y+2682500D01*
X+5980000Y+3470000D02*
X+5980000Y+3127000D01*
X+5916500Y+3063500D01*
X+5532000Y+3063500D01*
X+260000Y+2590000D02*
X+387000Y+2463000D01*
X+514000Y+2463000D01*
X+641000Y+2336000D01*
X+5600000Y+4140000D02*
X+5722500Y+4140000D01*
X+5786000Y+4076500D01*
X+5786000Y+4016000D01*
X+5520000Y+2810000D02*
X+5532000Y+2810000D01*
X+5532000Y+3063500D01*
X+5710000Y+3730000D02*
X+5710000Y+3940000D01*
X+5786000Y+4016000D01*
X+4790000Y+3130000D02*
X+5465500Y+3130000D01*
X+5532000Y+3063500D01*
X+3940000Y+1730000D02*
X+3940000Y+1140000D01*
X+6141355Y+4016000D02*
X+5786000Y+4016000D01*
X+1849000Y+3254000D02*
X+2039500Y+3254000D01*
X+6356000Y+3864000D02*
X+6230500Y+3864000D01*
X+6230500Y+4079500D01*
X+6167000Y+4143000D01*
X+6167000Y+4333500D02*
X+6167000Y+4143000D01*
X+6167000Y+4333500D02*
X+6167000Y+5653000D01*
X+6120000Y+5700000D01*
X+3180000Y+1780000D02*
X+3180000Y+1610000D01*
X+3170000Y+1600000D01*
X+641000Y+4114000D02*
X+517000Y+3990000D01*
X+455500Y+3990000D01*
X+6141355Y+4016000D02*
X+6167000Y+4041645D01*
X+6167000Y+4143000D01*
X+1200000Y+2000000D02*
X+1341000Y+2000000D01*
X+1550000Y+4470000D02*
X+1700000Y+4620000D01*
X+3940000Y+1730000D02*
X+3890000Y+1780000D01*
X+3690000Y+1780000D01*
X+5391419Y+1008581D02*
X+5198581Y+1008581D01*
X+5190000Y+1000000D01*
X+3722000Y+2980000D02*
X+3722000Y+2998096D01*
X+3490096Y+3230000D01*
X+3420000Y+3230000D01*
X+3690000Y+1780000D02*
X+3180000Y+1780000D01*
X+645500Y+2585500D02*
X+648182Y+2582818D01*
X+700498Y+2582818D01*
X+460000Y+2640000D02*
X+591000Y+2640000D01*
X+645500Y+2585500D01*
X+641000Y+2590000D01*
X+5980000Y+3470000D02*
X+5980000Y+3483079D01*
X+5733079Y+3730000D01*
X+5710000Y+3730000D01*
X+1500000Y+1950000D02*
X+1520000Y+1940000D01*
X+1530000Y+1950000D01*
X+1900000Y+1950000D01*
X+470000Y+3070000D02*
X+468426Y+3070000D01*
X+260000Y+2590000D02*
X+145510Y+2704490D01*
X+145510Y+2889266D01*
X+213213Y+2956969D01*
X+415001Y+2956969D01*
X+470000Y+3011968D01*
X+470000Y+3070000D01*
X+260000Y+2590000D02*
X+410000Y+2590000D01*
X+460000Y+2640000D01*
X+1220000Y+1470000D02*
X+1030000Y+1470000D01*
X+5350000Y+2580000D02*
X+5350000Y+2640000D01*
X+5520000Y+2810000D01*
X+4550000Y+3176000D02*
X+4744000Y+3176000D01*
X+4790000Y+3130000D01*
X+5600000Y+4140000D02*
X+5630000Y+4170000D01*
X+5630000Y+4340000D01*
X+1360000Y+2780000D02*
X+1360000Y+2610000D01*
X+1200000Y+2450000D02*
X+1214713Y+2450000D01*
X+1360000Y+2595287D01*
X+1360000Y+2610000D01*
X+1500000Y+1950000D02*
X+1450000Y+2000000D01*
X+1341000Y+2000000D01*
D11*
X+1640000Y+3100000D02*
X+1270000Y+3470000D01*
X+1270000Y+3640000D01*
X+1272000Y+3950000D02*
X+1270000Y+3948000D01*
X+1270000Y+3740000D01*
D10*
X+1341000Y+1222000D02*
X+1359000Y+1204000D01*
X+2250000Y+1204000D01*
D11*
X+1200000Y+2550000D02*
X+1285634Y+2635634D01*
X+1200000Y+2550000D02*
X+1180000Y+2570000D01*
X+1180000Y+2660000D01*
X+1640000Y+2960000D02*
X+1010000Y+3590000D01*
X+1010000Y+3640000D01*
X+1018000Y+3950000D02*
X+1018000Y+4968500D01*
X+954500Y+5032000D01*
X+579000Y+5032000D01*
X+515500Y+5095500D01*
X+515500Y+5265500D01*
X+730000Y+5480000D01*
X+1018000Y+3950000D02*
X+1010000Y+3942000D01*
X+1010000Y+3740000D01*
X+6484500Y+1031500D02*
X+6484500Y+1957500D01*
X+6356000Y+2086000D01*
X+4550000Y+890000D02*
X+4550000Y+500000D01*
X+5659000Y+1095000D02*
X+5849500Y+904500D01*
X+5849500Y+206000D01*
X+5913000Y+142500D01*
X+6802000Y+142500D01*
X+6865500Y+206000D01*
X+6865500Y+4502810D01*
X+6479190Y+4502810D01*
X+6356000Y+4626000D01*
X+4706500Y+1539500D02*
X+4706500Y+1652000D01*
X+4550000Y+1652000D01*
X+4770000Y+1666500D02*
X+4770000Y+1906000D01*
X+4550000Y+1906000D01*
X+6040000Y+1349000D02*
X+6065000Y+1324000D01*
X+6356000Y+1324000D01*
X+4706500Y+2174500D02*
X+4692000Y+2160000D01*
X+4550000Y+2160000D01*
X+4770000Y+2047500D02*
X+4770000Y+2414000D01*
X+4550000Y+2414000D01*
X+5087500Y+1031500D02*
X+5087500Y+333000D01*
X+5024000Y+269500D01*
X+3881000Y+269500D01*
X+3754000Y+142500D01*
X+515500Y+142500D01*
X+452000Y+206000D01*
X+452000Y+2144000D01*
X+260000Y+2336000D01*
X+6484500Y+2619000D02*
X+6484100Y+2619000D01*
X+6459100Y+2594000D01*
X+6356000Y+2594000D01*
X+5151000Y+5857500D02*
X+6421000Y+5857500D01*
X+6484500Y+5794000D01*
X+6484500Y+4878500D01*
X+6737000Y+4626000D01*
D12*
X+1200000Y+4620000D03*
X+5600000Y+4700000D03*
X+5214500Y+460000D03*
X+2928500Y+333000D03*
X+2420500Y+3000000D03*
X+5191419Y+808581D03*
X+1360000Y+3120000D03*
X+1570000Y+1470000D03*
D13*
X+1640000Y+3220000D03*
D14*
X+769500Y+3381000D03*
X+1214000Y+1031500D03*
X+6103500Y+3698500D03*
X+5087500Y+3317500D03*
D12*
X+5659000Y+841000D03*
X+2039500Y+3254000D03*
X+3170000Y+1600000D03*
D13*
X+1700000Y+4620000D03*
D12*
X+5190000Y+1000000D03*
X+1030000Y+1470000D03*
X+5600000Y+4140000D03*
X+1360000Y+2610000D03*
D13*
X+1640000Y+3100000D03*
D12*
X+1341000Y+1222000D03*
D14*
X+1180000Y+2660000D03*
D13*
X+1640000Y+2960000D03*
D14*
X+6484500Y+1031500D03*
X+5659000Y+1095000D03*
X+4706500Y+1539500D03*
X+4770000Y+1666500D03*
X+6040000Y+1349000D03*
X+4706500Y+2174500D03*
X+4770000Y+2047500D03*
X+5087500Y+1031500D03*
X+6484500Y+2619000D03*
X+5151000Y+5857500D03*
D16*
X+641000Y+4876000D03*
X+260000Y+4622000D03*
X+641000Y+4622000D03*
X+260000Y+4368000D03*
X+641000Y+4368000D03*
X+260000Y+4114000D03*
X+641000Y+4114000D03*
X+260000Y+3860000D03*
X+641000Y+3860000D03*
X+260000Y+3606000D03*
X+641000Y+3606000D03*
X+260000Y+3352000D03*
X+641000Y+3352000D03*
X+260000Y+3098000D03*
X+641000Y+3098000D03*
X+260000Y+2844000D03*
X+641000Y+2844000D03*
X+260000Y+2590000D03*
X+641000Y+2590000D03*
X+260000Y+2336000D03*
X+641000Y+2336000D03*
X+260000Y+2082000D03*
X+641000Y+2082000D03*
X+260000Y+1828000D03*
X+641000Y+1828000D03*
X+260000Y+1574000D03*
X+641000Y+1574000D03*
X+260000Y+1320000D03*
X+641000Y+1320000D03*
X+260000Y+1066000D03*
X+641000Y+1066000D03*
X+260000Y+812000D03*
X+641000Y+812000D03*
X+260000Y+558000D03*
X+641000Y+558000D03*
X+260000Y+304000D03*
X+641000Y+304000D03*
X+6737000Y+4880000D03*
X+6356000Y+4626000D03*
X+6737000Y+4626000D03*
X+6356000Y+4372000D03*
X+6737000Y+4372000D03*
X+6356000Y+4118000D03*
X+6737000Y+4118000D03*
X+6356000Y+3864000D03*
X+6737000Y+3864000D03*
X+6356000Y+3610000D03*
X+6737000Y+3610000D03*
X+6356000Y+3356000D03*
X+6737000Y+3356000D03*
X+6356000Y+3102000D03*
X+6737000Y+3102000D03*
X+6356000Y+2848000D03*
X+6737000Y+2848000D03*
X+6356000Y+2594000D03*
X+6737000Y+2594000D03*
X+6356000Y+2340000D03*
X+6737000Y+2340000D03*
X+6356000Y+2086000D03*
X+6737000Y+2086000D03*
X+6356000Y+1832000D03*
X+6737000Y+1832000D03*
X+6356000Y+1578000D03*
X+6737000Y+1578000D03*
X+6356000Y+1324000D03*
X+6737000Y+1324000D03*
X+6356000Y+1070000D03*
X+6737000Y+1070000D03*
X+6356000Y+816000D03*
X+6737000Y+816000D03*
X+6356000Y+562000D03*
X+6737000Y+562000D03*
X+6356000Y+308000D03*
X+6737000Y+308000D03*
D20*
X+5391419Y+828581D03*
X+5391419Y+1008581D03*
D18*
X+4550000Y+890000D03*
X+4550000Y+1144000D03*
X+4550000Y+1398000D03*
X+4550000Y+1652000D03*
X+4550000Y+1906000D03*
X+4550000Y+2160000D03*
X+4550000Y+2414000D03*
X+4550000Y+2668000D03*
X+4550000Y+2922000D03*
X+4550000Y+3176000D03*
D19*
X+1200000Y+2000000D03*
X+1200000Y+1746000D03*
X+3940000Y+1730000D03*
X+3940000Y+1984000D03*
D20*
X+1500000Y+1770000D03*
X+1500000Y+1950000D03*
X+3690000Y+1960000D03*
X+3690000Y+1780000D03*
D19*
X+2250000Y+950000D03*
X+2250000Y+1204000D03*
D21*
X+1370000Y+4470000D03*
X+1550000Y+4470000D03*
D18*
X+3722000Y+2980000D03*
X+3468000Y+2980000D03*
X+3214000Y+2980000D03*
X+2960000Y+2980000D03*
D22*
X+1270000Y+3740000D03*
X+1270000Y+3640000D03*
X+1010000Y+3740000D03*
X+1010000Y+3640000D03*
X+1200000Y+2450000D03*
X+1200000Y+2550000D03*
X+1530000Y+3740000D03*
X+1530000Y+3640000D03*
D18*
X+1780000Y+3950000D03*
X+1526000Y+3950000D03*
X+1272000Y+3950000D03*
X+1018000Y+3950000D03*
X+5980000Y+3470000D03*
X+5726000Y+3470000D03*
X+5472000Y+3470000D03*
X+5218000Y+3470000D03*
D19*
X+6120000Y+5700000D03*
X+5866000Y+5700000D03*
X+5612000Y+5700000D03*
X+5350000Y+2580000D03*
X+5604000Y+2580000D03*
X+5858000Y+2580000D03*
D20*
X+3180000Y+1960000D03*
X+3180000Y+1780000D03*
X+455500Y+3810000D03*
X+455500Y+3990000D03*
D21*
X+3240000Y+3230000D03*
X+3420000Y+3230000D03*
D20*
X+460000Y+2820000D03*
X+460000Y+2640000D03*
D21*
X+5530000Y+3730000D03*
X+5710000Y+3730000D03*
D20*
X+1900000Y+1770000D03*
X+1900000Y+1950000D03*
X+470000Y+3250000D03*
X+470000Y+3070000D03*
D21*
X+1400000Y+1470000D03*
X+1220000Y+1470000D03*
X+5700000Y+2810000D03*
X+5520000Y+2810000D03*
D20*
X+4790000Y+2950000D03*
X+4790000Y+3130000D03*
X+5630000Y+4520000D03*
X+5630000Y+4340000D03*
X+1360000Y+2960000D03*
X+1360000Y+2780000D03*
D19*
X+3940000Y+1140000D03*
X+4550000Y+500000D03*
X+730000Y+5480000D03*
X+1670000Y+5480000D03*
X+4890000Y+2550000D03*
D71*
X+0Y+0D02*
X+1650000Y+0D01*
X+7000000Y+0D02*
X+7000000Y+6000000D01*
X+5000000Y+6000000D01*
X+5000000Y+3700000D01*
X+4800000Y+3500000D01*
X+2200000Y+3500000D01*
X+2000000Y+3700000D02*
X+2000000Y+6000000D01*
X+0Y+6000000D01*
X+0Y+0D01*
X+2000000Y+3700000D02*
X+2200000Y+3500000D01*
X+5160000Y+0D02*
X+7000000Y+0D01*
X+1750000Y-200000D02*
X+5050000Y-200000D01*
X+1650000Y+0D02*
X+1750000Y-200000D01*
X+5160000Y+0D02*
X+5050000Y-200000D01*
X+4550045Y+50000D02*
X+4549508Y+63142D01*
X+4545144Y+89427D01*
X+4536029Y+115712D01*
X+4521182Y+141997D01*
X+4498470Y+168118D01*
X+4472185Y+187898D01*
X+4445900Y+200658D01*
X+4419615Y+208108D01*
X+4393330Y+210987D01*
X+4389000Y+211045D01*
X+4227955Y+50000D02*
X+4228492Y+63142D01*
X+4232856Y+89427D01*
X+4241971Y+115712D01*
X+4256818Y+141997D01*
X+4279530Y+168118D01*
X+4305815Y+187898D01*
X+4332100Y+200658D01*
X+4358385Y+208108D01*
X+4384670Y+210987D01*
X+4389000Y+211045D01*
X+4227955Y+50000D02*
X+4228492Y+36858D01*
X+4232856Y+10573D01*
X+4241971Y-15712D01*
X+4256818Y-41997D01*
X+4279530Y-68118D01*
X+4305815Y-87898D01*
X+4332100Y-100658D01*
X+4358385Y-108108D01*
X+4384670Y-110987D01*
X+4389000Y-111045D01*
X+4550045Y+50000D02*
X+4549508Y+36858D01*
X+4545144Y+10573D01*
X+4536029Y-15712D01*
X+4521182Y-41997D01*
X+4498470Y-68118D01*
X+4472185Y-87898D01*
X+4445900Y-100658D01*
X+4419615Y-108108D01*
X+4393330Y-110987D01*
X+4389000Y-111045D01*
X+6074045Y+5130000D02*
X+6073508Y+5143142D01*
X+6069144Y+5169427D01*
X+6060029Y+5195712D01*
X+6045182Y+5221997D01*
X+6022470Y+5248118D01*
X+5996185Y+5267898D01*
X+5969900Y+5280658D01*
X+5943615Y+5288108D01*
X+5917330Y+5290987D01*
X+5913000Y+5291045D01*
X+5751955Y+5130000D02*
X+5752492Y+5143142D01*
X+5756856Y+5169427D01*
X+5765971Y+5195712D01*
X+5780818Y+5221997D01*
X+5803530Y+5248118D01*
X+5829815Y+5267898D01*
X+5856100Y+5280658D01*
X+5882385Y+5288108D01*
X+5908670Y+5290987D01*
X+5913000Y+5291045D01*
X+5751955Y+5130000D02*
X+5752492Y+5116858D01*
X+5756856Y+5090573D01*
X+5765971Y+5064288D01*
X+5780818Y+5038003D01*
X+5803530Y+5011882D01*
X+5829815Y+4992102D01*
X+5856100Y+4979342D01*
X+5882385Y+4971892D01*
X+5908670Y+4969013D01*
X+5913000Y+4968955D01*
X+6074045Y+5130000D02*
X+6073508Y+5116858D01*
X+6069144Y+5090573D01*
X+6060029Y+5064288D01*
X+6045182Y+5038003D01*
X+6022470Y+5011882D01*
X+5996185Y+4992102D01*
X+5969900Y+4979342D01*
X+5943615Y+4971892D01*
X+5917330Y+4969013D01*
X+5913000Y+4968955D01*
X+1248045Y+5257000D02*
X+1247508Y+5270142D01*
X+1243144Y+5296427D01*
X+1234029Y+5322712D01*
X+1219182Y+5348997D01*
X+1196470Y+5375118D01*
X+1170185Y+5394898D01*
X+1143900Y+5407658D01*
X+1117615Y+5415108D01*
X+1091330Y+5417987D01*
X+1087000Y+5418045D01*
X+925955Y+5257000D02*
X+926492Y+5270142D01*
X+930856Y+5296427D01*
X+939971Y+5322712D01*
X+954818Y+5348997D01*
X+977530Y+5375118D01*
X+1003815Y+5394898D01*
X+1030100Y+5407658D01*
X+1056385Y+5415108D01*
X+1082670Y+5417987D01*
X+1087000Y+5418045D01*
X+925955Y+5257000D02*
X+926492Y+5243858D01*
X+930856Y+5217573D01*
X+939971Y+5191288D01*
X+954818Y+5165003D01*
X+977530Y+5138882D01*
X+1003815Y+5119102D01*
X+1030100Y+5106342D01*
X+1056385Y+5098892D01*
X+1082670Y+5096013D01*
X+1087000Y+5095955D01*
X+1248045Y+5257000D02*
X+1247508Y+5243858D01*
X+1243144Y+5217573D01*
X+1234029Y+5191288D01*
X+1219182Y+5165003D01*
X+1196470Y+5138882D01*
X+1170185Y+5119102D01*
X+1143900Y+5106342D01*
X+1117615Y+5098892D01*
X+1091330Y+5096013D01*
X+1087000Y+5095955D01*
M02*
